<svg width="185" height="162" viewBox="0 0 185 162" fill="none" xmlns="http://www.w3.org/2000/svg">
<path fill-rule="evenodd" clip-rule="evenodd" d="M105.638 136.808H24.5058C18.7954 136.808 14.1211 132.12 14.1211 126.391V10.6928C14.1211 4.96312 18.7954 0.277344 24.5058 0.277344H105.638C111.35 0.277344 116.025 4.96312 116.025 10.6928V126.391C116.025 132.12 111.35 136.808 105.638 136.808Z" fill="#E0E2EE"/>
<path fill-rule="evenodd" clip-rule="evenodd" d="M98.7118 141.754H17.5801C11.8696 141.754 7.19531 137.066 7.19531 131.336V15.6381C7.19531 9.90843 11.8696 5.22266 17.5801 5.22266H98.7118C104.425 5.22266 109.099 9.90843 109.099 15.6381V131.336C109.099 137.066 104.425 141.754 98.7118 141.754Z" fill="#E8EBF2"/>
<path fill-rule="evenodd" clip-rule="evenodd" d="M91.9752 145.661H10.6757C4.9535 145.661 0.269531 140.992 0.269531 135.286V20.0676C0.269531 14.3617 4.9535 9.69531 10.6757 9.69531H91.9752C97.6998 9.69531 102.384 14.3617 102.384 20.0676V135.286C102.384 140.992 97.6998 145.661 91.9752 145.661Z" fill="#D8DBEA"/>
<path fill-rule="evenodd" clip-rule="evenodd" d="M91.9752 145.661H10.6757C4.9535 145.661 0.269531 140.992 0.269531 135.286V20.0676C0.269531 14.3617 4.9535 9.69531 10.6757 9.69531H91.9752C97.6998 9.69531 102.384 14.3617 102.384 20.0676V135.286C102.384 140.992 97.6998 145.661 91.9752 145.661Z" fill="#F1F2F7"/>
<path fill-rule="evenodd" clip-rule="evenodd" d="M80.258 44.7994H20.2085C18.4936 44.7994 17.0898 43.4639 17.0898 41.8325C17.0898 40.1987 18.4936 38.8633 20.2085 38.8633H80.258C81.9729 38.8633 83.3766 40.1987 83.3766 41.8325C83.3766 43.4639 81.9729 44.7994 80.258 44.7994Z" fill="#E0E2EE"/>
<path fill-rule="evenodd" clip-rule="evenodd" d="M80.258 62.608H20.2085C18.4936 62.608 17.0898 61.2725 17.0898 59.6411C17.0898 58.0073 18.4936 56.6719 20.2085 56.6719H80.258C81.9729 56.6719 83.3766 58.0073 83.3766 59.6411C83.3766 61.2725 81.9729 62.608 80.258 62.608Z" fill="#E0E2EE"/>
<path fill-rule="evenodd" clip-rule="evenodd" d="M80.258 80.4166H20.2085C18.4936 80.4166 17.0898 79.0811 17.0898 77.4496C17.0898 75.8182 18.4936 74.4805 20.2085 74.4805H80.258C81.9729 74.4805 83.3766 75.8182 83.3766 77.4496C83.3766 79.0811 81.9729 80.4166 80.258 80.4166Z" fill="#E0E2EE"/>
<path fill-rule="evenodd" clip-rule="evenodd" d="M80.258 98.2252H20.2085C18.4936 98.2252 17.0898 96.8897 17.0898 95.2582C17.0898 93.6245 18.4936 92.2891 20.2085 92.2891H80.258C81.9729 92.2891 83.3766 93.6245 83.3766 95.2582C83.3766 96.8897 81.9729 98.2252 80.258 98.2252Z" fill="#E0E2EE"/>
<path fill-rule="evenodd" clip-rule="evenodd" d="M51.5534 116.034H20.2218C18.4996 116.034 17.0898 114.698 17.0898 113.067C17.0898 111.433 18.4996 110.098 20.2218 110.098H51.5534C53.2756 110.098 54.6853 111.433 54.6853 113.067C54.6853 114.698 53.2756 116.034 51.5534 116.034Z" fill="#E0E2EE"/>
<path fill-rule="evenodd" clip-rule="evenodd" d="M114.791 93.0149C102.783 105.02 84.1941 106.375 70.6986 97.1057C68.9739 95.8999 67.3323 94.5455 65.8014 93.0149C65.0134 92.2295 64.2706 91.4189 63.5706 90.5655C62.1707 88.8612 60.9445 87.0437 59.9399 85.1657C58.1699 81.9938 56.9664 78.628 56.3092 75.149C54.1892 64.2386 57.3592 52.4949 65.8014 44.0566C74.2638 35.5931 86.0095 32.4439 96.9217 34.5434C100.399 35.2206 103.768 36.4239 106.94 38.1735C108.821 39.2006 110.614 40.4265 112.321 41.8262C113.172 42.5235 113.983 43.2687 114.768 44.0566C116.301 45.5872 117.676 47.226 118.86 48.953C128.133 62.4437 126.776 81.0321 114.791 93.0149Z" fill="white" fill-opacity="0.1"/>
<path fill-rule="evenodd" clip-rule="evenodd" d="M111.432 90.6502C98.9394 103.145 78.6948 103.142 66.2003 90.6502C53.7221 78.1719 53.7221 57.925 66.2166 45.4328C78.6948 32.9546 98.9394 32.9546 111.418 45.4328C123.91 57.925 123.91 78.1719 111.432 90.6502ZM117.843 39.0144C101.808 22.9796 75.824 22.9796 59.7892 39.0144C43.7567 55.0469 43.7427 81.0471 59.7752 97.0819C74.3688 111.671 97.2425 112.987 113.331 101.008C114.902 99.8365 116.415 98.5232 117.859 97.0819C119.3 95.6384 120.614 94.1251 121.783 92.5537C133.761 76.4631 132.434 53.6057 117.843 39.0144Z" fill="#E0E2EE"/>
<path fill-rule="evenodd" clip-rule="evenodd" d="M180.947 157.524L180.274 158.197C175.82 162.653 168.527 162.653 164.072 158.197L122.949 117.075L139.825 100.199L180.947 141.322C185.403 145.777 185.403 153.068 180.947 157.524Z" fill="#2CBCEF"/>
<path fill-rule="evenodd" clip-rule="evenodd" d="M122.668 91.2969L134.819 103.449L126.192 112.073L114.043 99.9215C115.646 98.726 117.188 97.3858 118.664 95.9152C120.134 94.4445 121.474 92.9004 122.668 91.2969Z" fill="#E0E2EE"/>
<path fill-rule="evenodd" clip-rule="evenodd" d="M180.33 140.818L163.562 157.584L160.543 154.563L177.309 137.797L180.33 140.818Z" fill="#2CBCEF"/>
<path fill-rule="evenodd" clip-rule="evenodd" d="M140.756 100.782L123.528 118.01L120.969 115.45L138.196 98.2227L140.756 100.782Z" fill="#2CBCEF"/>
<path fill-rule="evenodd" clip-rule="evenodd" d="M103.163 41.1346L60.9138 83.3814C59.3227 80.5298 58.2408 77.5039 57.6523 74.3762L94.157 37.8711C97.2826 38.4822 100.311 39.5617 103.163 41.1346Z" fill="white" fill-opacity="0.5"/>
<path fill-rule="evenodd" clip-rule="evenodd" d="M117.014 51.1766L71.3383 94.2646C69.7026 93.1878 68.1456 91.9759 66.6938 90.6062C65.9464 89.9011 65.2396 89.178 64.5781 88.4143L110.81 44.7969C111.62 45.4231 112.389 46.0899 113.134 46.795C114.585 48.1647 115.892 49.6312 117.014 51.1766Z" fill="white" fill-opacity="0.5"/>
</svg>
